<svg xmlns="http://www.w3.org/2000/svg" viewBox="419 -7258 13296 21576" stroke="black" stroke-width="32" stroke-linecap="round" stroke-linejoin="round" fill="none" data-xena="-483 -90"><style>@media(prefers-color-scheme:dark){svg{background-color:black;stroke:white;}}</style>
<path d="M7991 674l 0-3 7 24 4 35 0 27 0 29-3 32-4 33-5 36-8 38-9 39-11 39-12 37-11 35-10 33-9 26-7 31 4 25 28 4 29-4 35-7 26-6 27-5 28-4 28-3 27-5 28-5 29-3 30-4 29-4 28-4 26-5"/>
<path d="M8439 714l-1-1-13 21-3 38-4 32-4 36-4 38-6 38-6 38-7 38-8 36-8 33-7 28-8 30 5-28 8-29 10-34 12-38 13-39 13-37 14-36 14-33 14-27 13-21 18-22 19-18 22 16 7 27 1 29 0 31-2 31 1 25 4 24 24-18 25-28 21-24 23-29 25-29 26-30 28-32 25-28 25-28 21-24 19-17 24-15 24-5 23 17 11 24 8 31 5 26 5 27 4 31 4 34 5 32 6 33 6 31 8 29 11 28 14 30 18 30 21 31 20 29"/>
<path d="M7279 1376l-1-1 34-3 35-3 49-5 30-3 32-4 35-3 37-4 41-5 43-4 44-5 46-4 49-3 50-4 52-3 53-2 55-2 57-1 58-2 61-1 61-2 63-1 62 0 64 1 64 1 65 1 65 3 65 5 64 4 63 6 61 5 61 5 59 5 58 7 55 5 53 5 52 4 49 5 45 4 43 4 41 4 38 2 34 3 31 4 28 3 24 3 31 7 24 8 14 25"/>
<path d="M7463 1725l 1-3-2 27-2 37-2 48-1 27-2 30-3 31-2 32-3 34-3 35-5 35-4 34-4 34-4 34-5 32-5 32-4 29-4 28-4 25-3 25-6 43-4 35-3 27-2 26 5-36"/>
<path d="M7429 1846l 2-14 6-30 8-36 11-36 18-25 21-13 29-5 24 0 28 1 34 4 36 5 38 10 36 11 34 14 28 17 21 17 18 29 2 32-13 31-19 22-24 20-29 20-33 18-35 15-36 13-34 11-32 10-29 10-24 12-27 22-14 28-1 29 12 27 26 21 24 11 29 10 32 6 34 4 36 0 37 0 37-2 36-3"/>
<path d="M7970 2123l 1-1 27-5 28-3 28-5 34-8 23-7 24-8 31-15 25-13 20-16-10-26-28-12-28-1-31 6-31 17-21 16-18 17-14 20-13 30-1 30 18 19 25 7 25 1 28-3 33-6 35-9 36-11 36-15 35-18 34-20 33-22 27-23 23-22 17-20 12-27 1-24-28-1-15 22-2 32 9 28 15 27 16 28 16 26 12 21 9 25-22 18-29 2-27-3-25-7-24-8 27 7 30 2 33-2 26-4 26-8 29-10 29-10 26-15 25-12 21-15 24-21 16-19 14-22-6 26-3 34-2 25 0 26 0 26 0 28-1 29-2 30-5 31-7 30-8 30-10 25-12 32-11 24 1-32 7-26 8-31 12-34 13-38 15-40 17-43 17-45 16-44 17-42 16-37 15-32 15-24 21-26 21-15 29-8 27 0 24 7 22 14 0 25-20 20-25 14-24 13 30 7 28-4 30-7 29-8 30-10 32-13 30-15 28-15 23-12 23-11-25 8 2-30 10-25 12-27 12-26 13-22 16-22 21-16 25-4 23 10 13 24 4 28-1 24-1 31 0 27 10 22 24-11 23-15 22-18 21-15 23-12 25-8 25 1 24 9 25 10 26 6 27 4 25 2 27 1 24-7 21-14 17-22 10-22 5-27 1-26 14 22 16 26 16 24 16 25 15 25 13 25 7 28-10 25-21 13-31 5-27 0-37-5-30-6-29-10 24-17 29-4 30-3 35-3 24-2 25-1 27-2 27-1 28-1 26-2 25-2 34-3 29-4 28-7 22-14 11-22 3-26 0-26-7-24-29 2-21 11-26 17-27 23-17 17-21 27-13 25-2 25 14 28 23 20 22 11 26 11 30 10 33 10 37 9"/>
<path d="M4101 3291l-1 0 25-17 31-18 26-15 27-14 29-15 31-14 32-15 34-15 35-14 33-12"/>
<path d="M4495 3409l 0-6-2-31-1-30 0-27-3-30-18-21-26 6-19 14-20 21-20 26-15 27-12 26-5 29 10 22 25 5 28-6 24-11 23-15 23-16 19 18 26 7 25-4 28-14 27-17 28-21 26-25 19-25 12-23 5-27-24 12-10 27-2 24 3 29 6 27 10 22 27 1"/>
<path d="M4674 3054l-4-2-25-9-12 21 22 22"/>
<path d="M4777 3357l-1 1 30-12 24-22 18-20 20-22 21-25 22-26 22-29 19-30 18-33 13-35 10-36 8-37 3-36 2-35 0-31-2-27-6-29-14-22-26 5-14 22-12 26-12 33-7 27-8 30-9 36-8 38-8 40-7 40-6 39-3 35 1 31 5 27 9 22 21 25 30 14 35 1 25-6 23-10 24-15 20-16 24-23 15-22 7-26-2-24-16 21 3 25 5 27 6 28 14 23 30-6 17-17 18-25 16-26 12-24 9-29 1-24-20 18-5 24 4 26 17 20 24 8 25-5 27-13 23-14"/>
<path d="M5327 3186l 1-1 18-16 16 19-6 27-8 27-9 25-11 27-9 22 12-26 12-25 13-22 14-22 14-20 18-24 16-20 24-1 20 14"/>
<path d="M5507 3236l 0 0 25-1 24-8 25-13 26-16 24-18 20-18 15-21-10-23-28-2-23 10-25 18-19 16-18 17-19 24-12 24-5 26 1 26 8 27 17 21 23 12 27 7 35-1 25-5 25-8 28-10 25-13"/>
<path d="M3991 3955l 1-3 12-23 26 12 9 24 4 24 3 30 3 34 1 37 0 39-1 41-2 43-4 45-5 46-5 46-6 44-7 44-8 40-7 35-7 28-9 30"/>
<path d="M4008 4059l-1-7-7-27-6-35-1-25 5-26 14-20 23-7 32-2 32 0 25 0 28 0 31-1 34 0 33 2 36 4 35 8 35 12 33 14 32 17 29 20 25 24 21 25 16 29 9 31 3 33-3 34-11 36-18 38-23 38-29 38-15 19-16 19-16 19-18 18-18 18-20 19-19 19-21 19-20 18-21 18-21 17-21 16-20 16-38 26-35 23-32 18-30 14-27 9-33 4-26-12-2-26 17-28"/>
<path d="M4449 4395l 0 0 24 8 24 0 29-4 24-8 25-11 23-14 17-18 15-24 0-25-18-20-29-13-27-1-29 7-32 16-20 15-18 18-20 28-10 29-3 29 4 26 10 23 20 24 24 11 29 4 33-6 25-8 27-12 29-17 31-19 32-22 30-24 30-26 27-27 25-29"/>
<path d="M4910 3886l-1-3-5 29-4 35-4 28-5 31-6 34-7 37-8 39-9 41-8 41-8 41-5 41-4 36 0 31 3 29 10 29 18 21 27 1 26-17 19-18 17-22"/>
<path d="M4825 4137l-9-1-25 0-30 2-32 3-30 10-21 14 26 6 30-8 27-9 33-13 32-18 37-20 38-23 37-26 35-27 31-29 25-27 19-25 13-25 10-24 5-24 3-29-2-24-22 10-8 33-2 34 1 27 0 32 1 35-1 37-2 40-4 43-6 43-8 43-10 43-10 39-11 37-10 30-8 25-8 24 13-29 12-23 13-25 14-25 14-23 19-29 16-25 14-20 15-21 19-15 16 18 2 28 1 24 4 24 5 24"/>
<path d="M5210 4195l 1-1 24 11 10 25 4 24 0 27-4 25-6 25-8 26-9 22-11 24-6-33 7-24 10-27 12-28 12-26 13-25 12-21 17-27 16-21 20-15 27-10 25 3"/>
<path d="M5462 4240l 1-1-24 7-12 21-7 24 3 28 15 23 25 4 23-17 18-23 10-22 6-28-7-30-10-24-15-21 23-12 25 0 24 11 21 19 13 22 2 26-4 24-4 28 27-5 21-21 14-19 16-26 11-22 21 15 18 18 25 2 27-9 22-13 23-13 25-13 24-10 22-10 22-12 7-22-25-9-29-2-31 1-25 7-22 10-21 15-16 18-12 27 0 29 11 26 20 20 28 13 25 5 27-2 30-7 30-13"/>
<path d="M3977 4901l-1-3 5-23 18-18 20-14 27-16 26 0 14 28 0 36-3 31-7 37-9 38-11 39-14 40-14 41-15 42-15 41-12 36-12 32-8 26-8 24"/>
<path d="M3995 4960l-2-5-10-27-7-29 7-28 22-22 26-15 30-15 23-8 24-5 26-2 25 0 27 2 25 5 25 6 23 10 21 12 20 14 18 17 16 19 15 22 10 24 7 25 4 27-1 28-7 28-11 28-17 30-20 29-25 30-28 29-32 30-32 28-33 27-33 24-31 22-31 18-30 13-30 10-27 5-24 0-28-7-14-19"/>
<path d="M4367 5180l 0 0 25 9 33-3 31-7 34-10 32-15 25-17 21-21 4-26-20-16-29-7-26 4-28 8-27 14-22 18-19 24-12 24-5 24 4 28 16 25 27 18 31 5 36-1 28-6 30-7 30-11 32-15 32-14"/>
<path d="M4811 5082l-1-1-27-4-25 9-19 17-22 21-20 24-12 22 0 26 25 14 33 3 33-5 26-7 26-9"/>
<path d="M4948 5072l-2-1-24-1-12 21-3 26-4 24-4 25 2 24 23 11"/>
<path d="M4973 4920l-3 0-28 4-17 18 17 18 25 14"/>
<path d="M5030 5081l 1 1 3 28 0 27-5 28-3 25 13-22 16-26 19-29 17-26 15-20 25 8 2 28-4 31-5 30 0 25 25-7 17-20 18-23 15-21 18-20 20-15 17 17 10 22 7 26 10 27 23 11"/>
<path d="M5474 5050l-1-1-19-17-26 9-25 15-21 15-22 23-12 22-4 25 21 14 26-4 22-10 24-15 25 7 19 14 26 3 21-14 20-22 20-20 23-26 16-20 14-24 14-25 13-30 12-34 12-36 11-40 7-40 7-37 3-31 1-25-3-25-16-20-23 13-18 28-11 32-5 27-2 31-3 34-2 38-3 39-4 38-3 40-2 35 0 33 1 30 3 26 8 30 12 25 28 6 20-17 22-25 13-22"/>
<path d="M5626 4918l-6 0-29 1-24 3-28 5-24 7 25 3 24-3 28 1 29 2 27 5 26 4 28 7 27 10 22 11 15 20 21 18 29 4 27-6 23-8 22-13 21-14 23-21 15-21 4-26-22-18-29-5-25 2-28 6-25 13-22 20-17 22-11 24-4 26 4 26 11 25 22 21 22 13 29 8 34 4 25 0 27-2"/>
<path d="M3980 5615l 2-3 18 19-1 35-3 30-5 34-4 36-5 39-6 40-5 41-7 42-8 41-9 40-9 39-11 35-10 29-11 29"/>
<path d="M3977 5627l-1-4-6-25 16-24 32-8 35-3 29 0 30 3 34 5 34 9 35 11 36 14 35 16 34 19 31 21 28 24 23 26 18 25 11 28 5 27-1 30-8 29-15 28-21 29-27 29-32 27-36 26-38 26-37 23-38 18-35 15-35 10-32 5-32 2-28-2-26-5-29-13"/>
<path d="M4467 5870l-1 0-3 25 7 24 5 32 1 29 0 29-3 25 2 25 24 6 25-21"/>
<path d="M4560 5709l-3 0-21 14 0 25"/>
<path d="M4647 5834l 1 1-2 28 0 28 2 27 0 32-1 25-2 26-4 29-5 30-8 31-10 32-10 31-10 31-8 25-12 30 12-22 8-29 10-34 10-37 10-40 8-40 7-38 6-36 5-29 4-25 5-28 6-26 14-20 26-1 25 5 26 12 21 16 13 22-4 24-19 26-22 22-23 23-23 19-20 16-21 14"/>
<path d="M4834 5998l-1-1 20-14 20-16 25-21 19-18 21-20 20-24 20-28 17-29 16-32 13-32 9-34 5-36 3-39 1-39-1-37-3-33-3-26-7-26-23-8-16 20-14 30-10 29-10 33-9 39-9 43-7 45-4 48-1 47 3 45 5 40 8 37 11 29 13 24 13 20 24 18 28 7 30-8"/>
<path d="M5158 5901l-2 0-28 8-22 16-8 24 8 24 21 17 25 2 22-9 22-17 16-21 7-28-17-25-28-12-26-5-24 2-25 4 31-7 28-8 26-7 25-8 25-6"/>
<path d="M5300 5800l 0-1 17-19 29-1 24 9 19 20 7 31-4 29-10 31-14 27-15 23-17 22 10-27 14-23 17-28 19-30 19-29 17-25 20-25 17-18 1 26-6 29-5 28-5 26-2 27 9 23 19-17 16-22 17-27 16-25 15-21 17-19 25-8 24 8 7 27-3 33-5 29-6 27-5 30 8 25 28-1 24-10 27-15"/>
<path d="M5809 5827l-1-1-23-10-27 7-27 13-21 13-17 18-15 21-10 22 13 22 30-2 26-9 26-13 24-13 21-16-1 27 13 22 20 13 25 2 25-2 27-7"/>
<path d="M6049 5800l-1 0-27-1-25 7-25 13-23 20-14 23-9 24-1 26 17 19 24 3 25-3 33-8 22-9 24-12"/>
<path d="M6161 5765l-1-1 12 22-2 26-9 32-11 27-12 30-12 25-10 28 26 5 24-23 18-20 18-22 17-25 16-25 13-25 12-25 11-23 13-24 9-24 4 31 0 33 0 29 0 33-2 38-3 43-5 46-7 50-3 24-5 26-4 25-5 25-6 25-5 25-7 25-6 25-8 25-7 25-8 24-9 24-7 23-17 43-14 38-12 26-16 20-10-26-4-27-1-36 3-45 3-25 3-26 5-28 7-29 6-29 8-29 9-28 10-28 10-27 10-25 11-22 22-40 22-34 21-26 22-22 22-17 23-14 23-12 24-9 25-8 24-6 32-5 26 1"/>
<path d="M1219 976l 1-3 6-27 3-24-14-23-28-5-33 6-27 10-29 14-33 18-35 21-35 25-34 27-31 27-26 29-21 26-15 23-8 24 24 19 39-1 37-7 43-12 47-15 25-8 24-8 24-6 45-11 42-8 38-2 30 3 25 7 28 18 14 26 0 33-7 28-13 30-18 32-21 33-25 32-26 30-27 27-30 25-30 22-32 19-33 15-33 10-32 7-32 0-26-2-30-13-17-24 7-30"/>
<path d="M1438 1224l-1-1-7 30-5 29-5 23-4 25-5 23-6 32-1 25 23 12 27-21 23-23 25-30 24-34 22-36 20-33 16-30 10-25 7-27-24 10-12 33-6 28-5 31-3 33-1 35 0 35 2 38 3 42 1 46 0 24-1 25-1 25-2 27-3 26-3 27-4 26-4 26-5 25-4 26-6 25-6 25-13 44-15 40-14 34-14 26-17 23-19-18-1-28 2-41 2-24 4-27 3-31 7-33 6-35 8-36 8-38 9-39 11-38 10-37 13-36 11-34 12-33 13-30 12-27 14-25 13-22 12-21 24-36 24-30 22-24 20-20"/>
<path d="M1716 1266l-1-1 8-23 15-23 17-26 16-24 11-24 11-30 7-26-8 29 4 27 7 29 11 26 11 25 8 22 7 29-4 26-19 23-22 15-30 14-30 10-28 5-25 1-25-6 27-12 29-12 24-9 25-9 28-10 27-12 28-12 27-13 27-13 25-15 25-17 23-18"/>
<path d="M2033 832l-1-1-17 19 4 24 2 30 1 31 0 35-3 40-3 43-5 45-5 45-7 43-5 37-2 34-1 25 6 25 23 6 22-17 18-20 19-24 18-27 15-27 10-25 3-35-10-28-22-24-31-18-23-8-25-5-25-2-24 3-32 10-24 14 19 21 34-5 25-5 26-7 27-6 27-5 27-4"/>
<path d="M2197 1099l 0 0 26 11 25-5 26-10 24-17 18-20-6-24-27-5-32 4-25 12-28 20-17 19-14 20-15 29-7 27 2 26 14 28 20 16 27 10 29 5 30-1 29-5 25-8 25-14 19-23 14-22-10 26-6 30-2 27 9 23 18-16 15-21 15-23 14-23 16-20 23-11 17 18 13 24 18 18 23 14 25 5 29-5 25-10 24-10 28-4 25 16 16 28 13 23 18 20"/>
<path d="M726 1766l 0 0 24-7 35-6 35-6 40-6 41-7 46-7 26-5 29-5 30-5 33-5 36-5 38-5 38-5 40-6 42-6 43-4 44-6 46-5 46-5 48-6 49-6 50-6 51-5 51-7 52-5 51-5 51-5 52-5 51-5 51-3 49-5 49-2 48-3 46-3 47-3 45-4 45-2 44-3 44-3 44-4 44-4 42-4 44-5 41-3 40-5 40-4 39-5 37-5 34-4 34-3 31-4 29-4 27-3 25-3 44-5 34-3 27-1 25 0"/>
<path d="M902 2233l-1 0 30 2 30-4 25-7 27-10 26-12 29-15 32-18 23-11 23-11 24-10 32-13 26-8"/>
<path d="M1086 2282l 0-1 12 29-1 33-3 28-3 32-4 35-6 40-6 42-7 41-6 42-3 39-2 36 0 30 4 33 8 22 23-9"/>
<path d="M1245 2542l 0 0-1 24 3 30 6 28 9 27 16 21"/>
<path d="M1286 2336l-1 0-15 20"/>
<path d="M1356 2484l 0-1-3 28 4 27 3 30 0 25 18-26 17-31 20-31 13-20 15-19 17-18 20-20 21-14 16 23-3 32-6 28-7 27-7 24-4 25 28-15 18-25 19-28 17-25 13-21 16-21 24 7 4 28 2 27 3 24 8 25 25 5 23-13 24-20 16-21 19-14 24-1 26-10 23-15 18-19 14-23-2-27-22-14-25 3-29 10-26 19-16 20-12 24-6 25-1 30 12 27 23 22 30 14 26 6 27 1 26-5 27-11 29-16 30-20 22-19"/>
<path d="M4376 729l 1-3 17-23 21-18 27 5 18 25 10 30 5 25 3 25 2 28-1 27-2 27-4 26-5 25-6 25-7 23-8 24-8 25-9 25-10 24-11 25-11 24-11 22-19 41-17 34-13 25-11 21 3-26 8-32 15-44 9-27 10-29 10-30 11-30 12-32 11-30 12-29 12-29 12-28 13-26 15-25 13-24 14-22 15-20 23-27 21-18 24-11 22 14 5 24 0 45-3 25-4 27-7 27-7 26-7 25-7 24-6 24-13 46-11 44-8 37-6 30-4 30 14-24 14-36 9-22 10-25 11-28 11-28 13-30 14-33 17-36 18-38 20-39 20-39 22-38 22-35 22-34 20-28 18-22 21-21 26-8 11 26 0 31-2 27-6 32-7 33-8 35-9 33-8 32-8 30-8 28-6 25-9 37-6 37-3 31 0 25 4 27 24 11 23-15"/>
<path d="M4983 940l-3 1-21 17-20 21-16 27-9 25-2 24 7 31 17 22 25 11 30 0 23-11 23-19 18-22 10-23-2-26-16-22-21-12-25-7-24-2-25 2 30-9 30-12 31-12 30-10 28-8 26-5 28-3 22 9 2 25-5 24-12 29-14 32-15 32-13 28-13 26 19-16 14-21 17-24 19-26 18-25 18-22 17-20 22-24 18-16 21-14 12 23-9 31-9 28-11 32-8 32-3 29 4 26 24 12 30-15 28-24 19-21 19-22 16-21 20-26 12-23 10-24-17 24-8 29-5 31 0 29 5 27 24 7"/>
<path d="M5484 779l-2-2-21-18-22-16"/>
<path d="M5701 635l-1-1-9 28-3 27-8 35-13 45-10 30-11 30-11 27-12 28-11 26-11 23-18 36-16 35-15 30-10 26-7 28 10 24 26 2 31-10 23-13 24-16 24-19 22-19 17-18 16-27"/>
<path d="M5575 856l-5-1-26-3-25-1-33-1-25 1 24-6 29-6 25-6 29-6 31-7 32-6 31-4 30-5 27-1 33 1 29 7 12 23-15 23-22 22-22 22-18 21-12 22-6 26 11 23 23 11 32 3 26-6 26-10 26-15 22-19 17-21 9-22 1-28-11-21-19-14-22-10-25-7-26-4 27 9 27 0 29-2 25-3 24-5 25-1 26 0 28-3 25-1-8 28-19 19-20 20-21 19-17 19-13 22 0 24 20 19 30 7 29-2 32-9 32-14 29-20 19-17 19-19 18-19 16-21 16-24 15-27 12-28 8-24-25 5 1 28 9 28 11 23 13 29 11 26 10 22 6 26-16 19-23 11-24 10-28 8-25 5-27 2 24-2 30-2 25-2 28-3 28-4 30-3 30-2 27 0"/>
<path d="M4136 1463l 3-1 31-4 34-3 28-2 33-4 41-5 24-4 27-5 30-4 32-6 36-7 38-7 43-8 45-9 49-8 51-9 54-9 57-9 58-9 62-8 63-7 64-7 64-7 64-5 65-5 64-4 63-4 61-3 60-2 57-2 56-2 54 0 53-1 52-1 50-2 49-1 47-2 47-1 42-2 43 0 42-1 39-1 38 1 36 1 33 1 32 1 29 1 27 2 25 3 41 5 33 5 24 5 23 9"/>
<path d="M4051 2045l 0-1 18-22 27-11 26-10 33-15 26-10 29-12 32-13 33-15 33-15 32-16 33-16 34-17 33-16 31-16 30-15 27-13 23-10 26-9"/>
<path d="M4351 2000l 0-1 2 29-2 29-4 30-5 24-5 29-7 31-7 31-7 32-6 32-6 29-4 29-4 25-2 35 1 27 7 29 20 20 25 1 25-11"/>
<path d="M4506 2234l-1 1-5 25 0 28-1 26-3 30-1 27"/>
<path d="M4549 2106l-1-1-15-20"/>
<path d="M4610 2233l 0 0 8 28 2 29-4 29-5 26-7 24 13-28 14-22 15-25 18-24 16-21 21-27 17-19 18-16 23 5 2 24-5 25-8 28-11 30-11 29-9 27 26-3 21-24 22-29 20-25 18-23 17-18 18-16 25-3-1 24-5 27-4 26 0 26 5 25 19 16 28-7 20-14 20-18 18-20 15-22 16-18 24 5 27-9 24-13 25-17 20-17 11-24-16-22-26-8-32 2-23 7-22 12-23 22-14 22-11 30 0 27 12 23 19 18 28 11 27 1 34-5 25-6 28-8 28-11 28-11"/>
<path d="M4072 3026l-1-1 8-23 29-17 24-17 29-19 30-19 32-19 33-19 32-17 32-17 31-15 30-11 29-10 26-6 30-3"/>
<path d="M4130 3087l-1-3-8-23 25 4 6 32 1 35-2 29-5 30-6 33-8 36-10 36-12 40-12 40-14 40-13 40-12 36-10 34-7 27-4 32 5 23"/>
<path d="M742 -6884l 0-1 2 31 3 31 1 26 2 32 0 34 0 36-1 40-1 40-2 42-2 40-2 41-3 38-2 36-3 33-2 27-4 32"/>
<path d="M769 -6878l-1-1-5-24 12-21 25-15 24-13 28-13 31-12 41-15 37-8 31-2 32 5 25 13 19 18 10 26 0 33-7 28-11 31-15 33-19 33-21 35-20 26-15 20-17 21-18 21-20 22-20 22-20 21-22 20-19 17-24 20-20 15"/>
<path d="M1077 -6573l-2 1-18 17-15 24-10 23-6 30 0 27 14 24 23 5 23-7 26-19 18-19 13-20 8-27-18-20-25-11-25-3 28 4 30-15"/>
<path d="M1229 -6606l-1-1 25-10 25-8 26-5 26 3 8 27-15 28-15 21-16 26-17 26-14 24-11 27 4 26 25 8 29-11 26-17 19-15 20-18 22-21 20-24"/>
<path d="M1524 -6901l-1-1-15 23-2 30-2 33-3 25-3 29-5 31-5 33-6 33-6 32-4 32-3 29-1 25 2 30 10 23 28 7 22-11 28-25 21-23"/>
<path d="M1430 -6755l-5 4-26 17 32-2 22-12 24-12 24-13 28-13 26-14 28-14"/>
<path d="M1578 -6533l 0 3 16 18 24-14 24-22 25-27 16-20 15-22 14-21 16-30 10-26 9-28-2-25-18 16 0 30 10 26 19 25 21 21 20 20 17 24 3 24-19 22-26 18-23 12-22 12-24 15 29 10 25-8 28-9 27-8 28-7 25-10 25-8 28-7"/>
<path d="M675 -6168l 0 0 28 8 27 1 26-1 32-4 63-12 45-9 45-12 48-14 49-13 48-15 46-13 42-12 42-12 44-13 43-12 43-12 42-11 41-10 40-11 40-9 39-9 38-8 36-6 35-6 35-5 34-4 33-5 30-4 31-3 29-4 30-3 27-3 26-2 25-2 44-4 38-2 30-2 25-1 27-1 26-4"/>
<path d="M904 -5712l 1-1-3-25-19-19-27-10-29 0-25 6-26 10-24 15-19 19-16 26-4 26 9 24 22 23 23 14 27 11 28 12 28 14 29 15 29 16 27 18 23 22 17 29 5 24 1 27-5 31-11 34-15 37-19 37-21 35-20 30-19 25-25 22-27 7-27-17-20-25-17-31-8-24-6-27-1-29 1-28 7-28 7-27 12-27 16-27 17-28 23-28 27-29 29-29 32-27"/>
<path d="M1105 -5615l-1 1-15 20-10 25-6 24-4 29 0 30 5 32 10 31 17 24 23 16 27 9 31-1 32-9 30-15 20-15 18-17 16-19 13-21 15-30 8-28-1-25-9-25-20-27-18-19-20-18-22-17-25-13-24-8-26-5-27 0-25 5-23 7-29 15-19 15-6 25"/>
<path d="M1564 -5773l-1-3-22-14-25-7-31-1-27 4-27 11-24 14-21 17-16 20-9 25 6 28 21 22 25 14 32 11 35 10 25 5 35 8 33 12 29 13 21 18 15 22 6 25-2 28-13 29-21 30-26 24-29 18-27 10-26 1-26-9-23-19-19-28-9-24-6-27-2-28 3-28 5-27 10-27 12-25 16-24 19-22 21-21 24-21 28-20 31-20 32-17 30-14"/>
<path d="M1760 -5835l 0-1 10 23 8 24 6 30 5 35 2 28 2 28 0 31 0 31-1 32-1 30 0 28 0 25 1 31 2 31"/>
<path d="M2164 -5729l-1-1 13 23"/>
<path d="M2178 -5629l-2-2-22-10 26 9"/>
<path d="M2423 -5500l 0 1 10 23 27-5 27-14 22-16 25-22 28-28 30-33 30-37 30-36 14-19 27-38 23-37 19-38 14-40 10-39 5-37 3-34-1-29-6-28-20-17-26 14-23 30-18 31-19 39-9 23-9 25-9 27-8 28-9 30-8 32-8 33-8 34-7 35-6 35-5 35-5 34-4 35-2 33-3 31 0 28 0 28 1 27 2 25 6 44 9 36 10 32 12 23 20 23 29 4 23-21 16-23 15-31 12-35 9-35 4-35-1-34-7-32-11-30-13-26-14-23-22-23-20-14-26-6 20-17"/>
<path d="M2767 -5659l 1-1 20-16 26-7 28-5 25 0 24 10-1 28-15 20-20 26-18 21-18 23-14 22-11 27 2 27 27 7 28-6 32-12 24-10 24-10 31-14 24-13 19-16 8-24 24-6 26 5 24-5-14-20-27-10-25-1 17-20 24-14 22-12 22-13 24-14 23-5 18 17 13 21 5 27-5 28-11 26-17 25-15 22 13-20 19-25 15-21 15-21 15-21 16-19 20-24 17-17 21-18 22 11 5 30 3 29 5 30 5 27 12 22 25 0"/>
<path d="M3515 -5983l-1 0-13 24-2 32-3 32-2 26-3 27-5 30-7 33-7 34-8 34-9 34-9 31-7 28-6 24-3 27 4 24 27 1 28-12 25-18 27-22 18-19 17-19"/>
<path d="M3423 -5770l-6 0-28 5 24-7 32-8 35-11 25-9 28-9"/>
<path d="M3656 -5727l-1 0 29 6 28-5 28-10 28-15 26-17 21-18 15-18-16-21-32 0-29 7-31 13-28 19-24 21-19 23-11 23-3 29 10 28 21 21 25 6 32-3 23-8 24-10 25-11 23-13 22-11 28-15 24-12 13 22 27 0 19-17 19-18 18-17 20-18 25-2 6 26 1 24 10 26 25 13 30 0 30-8"/>
<path d="M4319 -5774l 1-3 1-26-23-17-24 3-25 14-22 20-25 24-22 26-15 25-3 28 17 22 31 1 33-13 27-15 28-22 29-27 28-31 25-33 22-34 18-36 15-37 11-40 9-43 6-46 4-47 2-44-1-37-3-28-10-27-23-16-22 10-19 25-12 30-7 26-5 32-4 35-3 39-1 42-1 44-1 45 0 24 1 44 2 42 3 38 5 34 7 30 10 25 12 21 23 23 26 11 28 0"/>
<path d="M894 -4710l 1-5 11-26 12-25 10-23 7-29-6-23-22-19-27-1-26 7-29 16-21 13-19 14-19 17-21 22-14 21-5 25 8 27 16 19 26 18 22 11 25 10 27 9 28 8 27 7 25 7 23 8 27 15 19 19 9 24-3 27-15 33-17 25-21 25-24 25-27 21-27 18-26 12-25 8-33 4-25-8-17-19-7-32 2-29 7-37 12-42 7-23 9-24 10-24 11-24 11-24 13-24 15-22 14-21 14-20 31-36 31-31 32-27 32-23 31-19"/>
<path d="M1195 -4686l-4 1-29 15-27 17-20 19-14 22-8 25-3 29 4 28 10 24 18 19 23 11 27 4 29-3 33-12 21-14 21-18 21-20 17-21 15-22 10-23 10-32-3-34-8-24-12-24-15-24-17-22-18-16-27-16-25-4-25 4-22 12-17 18-9 25"/>
<path d="M1610 -4818l-2-4-15-20-19-24-19-18-24-12-25 4-20 13-20 20-14 25-4 27 8 28 14 20 23 17 27 19 31 19 22 12 22 11 31 17 28 19 22 19 18 21 11 22 1 31-10 25-21 23-31 20-24 8-26 5-25 1-33-8-28-19-16-18-14-22-13-26-9-29-7-28-3-28 2-26 6-25 8-23 14-22 16-20 21-20 25-19 29-18 33-17 36-16 38-15"/>
<path d="M1763 -4872l 1-3 11-21 25-12 28-6 24 0 27 4 27 7 26 11 22 16 15 19 8 25 0 28-10 31-11 22-17 25-21 26-25 27-27 27-28 28-29 27-26 25-24 23-20 21-20 25-13 23 20 13 31 0 32-5 24-6 27-6 28-8 30-9 30-10 30-12 29-12"/>
<path d="M2122 -4805l 0-1"/>
<path d="M2138 -4678l-1-1"/>
<path d="M2367 -4657l-1 2-16 23 16 21 32-12 24-15 29-20 32-27 35-30 35-33 17-17 33-33 33-34 30-36 27-35 24-37 20-37 15-36 11-33 5-29 3-25-3-28-14-20-28 7-21 18-24 25-17 22-16 23-17 28-15 32-15 36-13 40-12 44-8 43-6 43-1 39 4 35 8 31 13 25 25 26 31 12 34-1 34-13 20-14 17-18 13-21 11-33-1-34-10-30-18-30-16-18-18-16-27-19-23-10-25 2 6 23 30 12"/>
<path d="M2980 -4795l-1-2-10-25-20-17-24-2-26 11-23 20-17 20-18 24-14 27-8 26 0 30 17 19 28 1 25-8 28-16 28-19 25-19 20-21 9-22-16 18 6 26 12 24 19 20 24 6"/>
<path d="M3225 -4823l-2-1-24-3-27 5-24 15-17 18-19 25-12 20-12 28-2 29 23 18 30 0 29-8 28-12 28-13 27-15"/>
<path d="M3317 -5083l 0 0 17 24 9 23 8 31 3 24 2 27 0 28 0 29-3 29-4 29-6 29-6 28-8 28-8 26-8 24-12 27-14 21-7-27 6-30 8-24 9-25 11-24 12-23 15-31 13-27 13-21 17-20 23-17 24-4 24 10 9 23-13 26-20 22-19 16-19 16-20 21-15 19 3 24 20 19 27 6 28 2 32-2"/>
<path d="M3559 -4828l 1-1 25 2 28-10 28-14 23-13 19-16 20-21 10-25-17-21-31-4-30 8-24 13-23 18-20 23-16 23-10 23-3 28 8 24 18 21 25 13 25 3 29-3 31-10 23-10 22-13 23-14 20-17 24-22 14-21 7-27-13-21-22 13-8 27-1 29 1 25 28-11 17-23 18-27 17-25 15-20 21-16 20 16 2 30 1 26 2 29 4 27 15 24 28 7"/>
<path d="M4137 -4912l 0-3-4-24-13-23-24-14-28 0-25 13-20 15-20 20-16 27-11 31-5 31 0 28 12 27 18 18 27 4 24-10 27-20 19-19 17-22 16-25 12-28 13-28 11-31 10-35 9-38 6-43 5-47 4-46 0-42-3-34-6-25-14-23-21-13-22 16-9 26-3 33-2 28 1 32 2 34 4 36 5 37 4 38 5 40 5 37 6 35 7 32 8 29 11 27 12 25 17 28"/>
<path d="M7504 744l 1-4 10-25 13-20 15 23 2 25-5 30-7 27-10 34-13 39-15 42-7 23-8 22-9 24-8 23-8 23-16 44-13 42-11 38-7 34-6 27-4 32 1 27 21 14 33-8 22-8 26-10 27-11 30-11 30-10 30-10 30-9 29-8 28-8 25-6 24-6 29-6 28-8"/>
<path d="M5834 8923l-4 3-22 14-24 15-25 16-20 17-18 22-11 27-5 26 0 30 5 35 8 23 12 22 18 21 21 17 24 12 28 9 32 4 36-4 41-12 23-10 24-13 25-16 26-18 26-21 28-23 29-26 30-27 31-30 31-32 31-33 31-35 31-36 32-38 30-41 31-43 30-43 30-46 29-48 29-50 28-51 28-52 27-54 25-54 26-55 24-55 25-56 23-55 22-57 20-56 20-55 18-56 18-56 16-55 15-55 14-54 13-53 12-53 11-51 10-50 8-49 8-50 7-46 5-46 5-43 5-42 3-39 2-36 0-34 1-31 0-29-1-26-3-44-4-36-8-25-13-21-28-7-29 12-22 17-25 26-27 37-14 23-14 24-15 27-17 30-17 33-18 36-18 38-19 41-20 43-20 45-20 48-21 50-19 53-21 55-20 57-21 60-21 63-20 64-20 66-20 68-19 72-19 71-18 74-19 74-18 76-18 75-19 77-20 76-19 77-22 75-22 75-23 73-23 75-25 74-25 73-26 73-26 72-26 74-26 73-27 73-27 70-27 70-27 69-26 67-26 65-27 64-26 61-26 59-25 57-25 55-24 53-24 52-23 48-23 46-21 44-22 41-21 39-22 37-21 35-20 31-20 29-20 28-20 23-18 22-18 19-34 28-34 16-29 7-27-7-21-17-16-26-11-38-3-45 0-26 2-27 4-28 5-29 7-30 8-30 10-30 11-31 14-31 14-31 16-32 17-34 19-33 19-34 22-35 22-34 24-36 25-34 26-35 28-33 27-33 30-33 31-30 30-30 32-26 33-26 32-24 33-23 33-21 34-19 33-18 32-15 31-14 31-13 31-12 30-8 30-8 29-6 27-5 27-5 26-2 25-1 46 0 40 5 36 8 31 9 28 10 27 11 25 10 23 10 22 9 33 13 32 9 35 1 25-6 27-12 29-18 31-21 31-25 32-29 32-31 33-33 33-35 34-35 32-32 31-35 30-33 28-30 25-30 24-28 20-26 16-23 15-20 17-26 14-24-8 23 2 25-1 24-5 26-4 27-2 26-1 26 3 24 18 18 27-4 22-13 20-17 25-24 18-19 20-21 22-24 23-25 22-25 23-27 22-28 21-28 20-29 18-28 16-27 14-26 11-24 12-33 7-30 6-31 0-24-6 23-2 26 0 25 1 27 2 31 4 32 3 32 3 29 3 30 0 28-23 10-20-14-20-14-22-11-24-9 26 13 32-4 29-10 34-14 25-14 25-15 28-18 27-21 28-24 26-25 26-28 25-28 25-30 23-31 22-33 21-35 19-35 18-39 16-38 13-41 11-42 8-45 7-45 4-44 3-45 2-42 1-39 0-36 0-30-3-32-5-25-22 17-12 25-8 23-8 29-7 34-6 37-7 40-5 44-5 47-3 25-2 26-3 26-2 27-3 26-2 25-2 26-2 25-2 44 1 39 3 33 5 24 12 26 19 15 26 6 31-6 22-11 25-17 24-23 27-28 28-31 28-33 26-33 24-32 22-27 18-27 15-23 11-22 11-24 1-26-20-12-28 6-19 18-13 25-10 34-5 24-3 25 0 32 4 24 14 24 26 6 29-13 27-21 20-18 21-23 22-27 23-28 23-31 23-29 23-29 22-28 21-27 20-23 17-20 23-21 21-14 8 25-8 33-10 29-12 30-12 26-13 24 16-24 12-22 13-25 15-27 17-27 18-26 19-23 18-23 18-20 17-17 26-20 26-13 28-7 30-4 33-1 25 0 26 4 31 1 35 1 40 1 45-4 45-5 46-10 24-6 24-8 25-8 26-9 25-9 26-10 26-9 26-10 26-11 24-11 25-12 22-12 23-12 22-12 22-13 39-24 35-25 29-21 20-18"/>
<path d="M7532 8490l 9-4 27-12 40-18 25-11 28-12 29-12 28-14 30-15 30-16 31-17 32-18 32-19 33-20 32-22 32-22 33-23 32-22 31-23 30-23 30-22 28-21 26-20 25-19"/>
<path d="M7337 7865l-6 1-31 3"/>
<path d="M6467 11485l-1 2-8 23 6 24 16 18 25 18 27 12 34 12 27 6 31 6 34 3 35 0 37-3 37-9 39-13 42-20 21-13 22-13 23-17 23-18 23-22 24-22 25-25 25-28 26-30 26-32 27-33 27-35 26-36 27-37 27-40 26-40 26-42 25-42 26-44 24-44 24-44 24-44 23-44 23-45 21-44 21-44 20-44 19-44 19-44 17-45 16-45 15-43 14-44 13-43 12-42 10-41 10-40 8-40 8-40 7-38 6-37 6-35 5-34 5-31 5-30 3-28 3-25 4-42 2-32-2-25-10-26-26-6-23 13-18 17-22 24-24 33-26 41-13 26-14 27-14 30-14 32-15 34-14 36-16 38-16 40-15 40-17 43-16 45-17 45-15 48-17 49-15 49-16 52-17 52-15 53-16 53-16 54-15 56-17 56-17 56-17 55-18 57-19 55-20 57-20 56-22 55-23 56-22 56-25 58-24 57-26 56-25 57-28 57-27 58-29 55-29 56-29 55-30 54-31 53-31 52-31 50-30 50-32 47-31 48-30 45-30 45-30 43-29 42-29 40-29 37-27 35-27 34-26 31-27 30-27 28-25 26-24 24-25 22-25 21-25 19-23 19-24 17-22 16-23 14-22 14-21 11-42 22-39 15-37 10-34 5-31-2-29-5-28-10-25-14-20-19-17-24-9-30-4-34 2-38 6-43 14-44 10-22 11-23 12-22 12-23 14-22 15-23 16-23 17-23 17-22 18-24 19-23 20-22 21-23 21-22 20-22 23-21 21-20 22-18 22-18 21-16 21-14 20-13 42-19 38-10 38-3 35 4 29 10 26 15 22 23 20 29 18 33 16 37 15 39 14 41 14 40 15 40 16 37 17 34 20 32 22 30 24 29 28 26 31 25 34 21 38 16 41 11 45 6 47 0 24-3 26-4 25-5 28-5 27-8 27-8 28-11 29-13 29-14 28-16 29-18 28-18 27-21 28-25 27-25 27-27 25-28 25-28 24-31 23-31 22-31 21-32 20-31 18-31 17-30 14-29 14-28 13-27 10-26 10-24 7-24 11-42 7-37 2-31 0-25-5-28-13-21-22-13-25-8"/>
<path d="M10181 5798l 0-1 24-10 24-16 23-19 27-24 21-21 23-23 26-28 28-33 28-36 15-20 16-20 16-23 16-22 17-24 17-24 17-27 17-26 18-28 17-28 17-28 19-31 18-32 17-32 19-33 18-33 18-36 18-36 19-37 18-38 18-38 17-39 18-40 18-41 17-40 17-41 16-42 16-41 16-42 15-42 15-41 14-43 14-42 14-41 13-42 12-39 11-39 12-38 10-37 9-37 8-35 8-35 6-35 6-33 4-33 3-31 2-32 1-29 0-29 0-28-1-27-1-26-3-25-2-24-6-45-7-40-8-37-9-31-9-26-11-27-14-23-20 16-4 28-2 26-2 31-1 34-3 39-4 41-4 46-2 25-3 26-3 27-3 30-3 29-3 31-4 32-4 32-4 32-3 33-3 33-4 33-2 32-3 32-2 32-1 31-1 33 0 32 1 33 1 32 2 33 4 33 4 33 5 33 5 33 6 33 6 35 8 33 7 35 8 34 8 35 9 37 8 37 8 37 9 39 8 38 9 39 8 40 9 39 9 40 7 40 9 40 8 39 7 40 7 39 7 38 7 38 5 36 5 34 5 32 5 31 4 29 3 28 3 24 4 44 1 37-2 30-8 33-14 23-21 14-30 7-37-2-30-5-33-8-35-9-39-13-41-13-46-14-24-8-25-10-25-7-26-8-26-7-28-8-27-7-27-7-28-7-28-6-29-8-28-7-29-6-29-7-29-7-28-7-29-6-29-6-27-9-28-5-27-7-25-7-25-6-47-12-43-10-39-12-34-11-28-12-22-13-22-17-8-24 12-24 22-17 34-15 27-8 33-7 35-6 39-6 41-4 43-4 47-2 25-1 25 0 25 0 25 0 27 0 25 1 27 2 26 2 26 3 26 2 27 2 26 3 27 3 27 3 26 2 28 3 28 3 29 3 27 2 28 2 29 2 28 2 28 3 27 0 28 1 27 1 28 0 27-2 27 0 27-3 26-3 27-3 26-4 27-5 25-5 25-5 25-6 25-7 23-7 23-8 43-17 39-18 35-19 32-19 27-19 23-18 19-17 20-25 13-20 8-26-12-22"/>
<path d="M11747 10726l 1 1-22-13-30-24-29-25-33-33-18-18-20-22-20-24-22-26-21-26-22-30-23-31-25-35-24-38-25-39-25-41-25-45-25-49-26-52-25-54-25-59-25-61-22-66-23-69-22-71-20-74-18-76-16-79-14-80-12-80-10-84-8-83-5-84-1-84 1-84 3-82 7-81 8-80 12-78 13-75 15-73 17-72 19-67 21-66 23-65 25-62 26-61 26-59 29-56 29-55 30-54 30-50 31-47 30-46 31-43 29-39 29-35 29-32 28-29 28-26 27-22 27-19 26-17 25-13 24-12 23-10 43-13 37-6 33 2 27 9 23 15 20 23 15 29 14 39 11 47 5 28 5 30 3 33 3 35 3 37 1 39 1 41 1 42-1 45-1 46-3 48-2 51-5 53-3 57-6 58-6 61-7 64-8 67-8 70-9 74-10 76-10 80-11 82-10 85-11 87-11 89-10 89-11 90-12 91-10 91-12 89-10 90-11 88-12 88-11 86-12 85-12 83-12 82-13 81-12 79-13 79-13 79-14 75-13 77-12 77-11 76-12 76-10 74-9 72-8 71-8 72-7 66-6 64-6 61-4 58-5 55-4 52-4 49-4 45-3 44-3 40-4 38-2 34-3 33-3 30-3 28-4 28-5 46-7 41-7 34-7 28-11 30-11 23-22-13-3-27 1-25 4-25 2-27 2-27 2-26 1-37 1-30 1-36 0-42-1-49 0-26 0-26-1-28 0-30-1-31 0-32 0-32 0-33 2-35 1-36 2-36 2-36 3-37 5-36 4-37 5-35 5-35 6-35 5-34 7-31 6-31 7-29 6-28 6-26 7-23 13-43 11-37 11-28 9-25 12-27 9-22"/>
<path d="M11640 10701l 0-1 21-18 16-22 22-22 24-21 23-20 23-17 26-13 25-12 27-8 23-7-21 12-21 18-20 15-20 18-17 17-17 25-11 25-9 23-5 27 3 24 22-11 19-21 16-25 17-28 17-29 14-27 14-26 8-22-5 30-1 29 1 24 6 24 14 20 27 7 25-4 28-10 22-11 23-13 24-14 23-15 21-15 24-19 20-16 20-18-26 9-19 22-13 23-9 26-4 27 11 22 26 8 32-5 33-15 25-17 27-22 26-27 27-34 28-36 14-20 14-20 13-21 14-20 13-22 12-21 12-21 12-23 21-43 10-23 9-23 8-23 8-23 7-23 7-24 5-25 6-26 5-27 4-27 5-27 3-27 4-28 3-26 3-26 5-46 4-37 3-28 2-25-8 26-6 25-8 34-11 40-6 24-6 25-6 26-6 27-7 28-6 30-7 31-6 31-7 33-7 32-8 33-7 33-9 34-8 34-8 34-9 35-9 34-8 33-9 32-9 30-8 28-8 25-13 43-10 30-8 28 23-23 15-24 20-29 20-30 21-32 22-29 22-27 20-24 21-18 19-15 26-11 27-8 22 11-13 23-18 20-21 23-23 16-22 14-23 7-25 3-25-7-22-11 21 18 21 15 25 17 23 15 26 15 29 13 30 10 32 5 33 1 31-4 27-9 22-13 22-18 23-18 22-19 20-21 20-22 19-23 16-22 18-25 14-21-22 11-20 18-23 25-22 27-20 27-17 23-14 21-11 23 25 9 22-19 18-19 16-23 12-23 11-22 8-24 0 30 0 35 3 35 10 30 12 25 17 20 21 15 26 5 29-3 32-16 23-17 24-23 26-26 27-30 26-33 26-35 26-38 12-21 25-40 12-21 22-42 10-22 10-22 18-46 8-25 6-24 7-26 5-25 6-26 4-24 5-25 3-25 5-44 3-36 0-27-6-26-25 2-21 14-27 28-19 29-20 35-21 40-9 23-11 23-10 24-10 25-9 25-8 27-8 27-8 28-7 30-5 29-5 29-3 30-3 30-1 30-1 28 1 29 2 26 3 27 4 25 11 45 14 42 18 35 20 32 24 27 26 21 29 19 28 15 29 11 30 8 30 2 33-3 34-9 35-15"/>
<path d="M9306 12199l-2 1-22 21-6 24-5 29-4 26-7 31-9 38-11 45-6 26-7 28-7 30-8 35-7 37-8 40-7 46-8 49-8 52-9 56-8 60-9 62-8 65-9 69-9 69-8 70-8 70-8 71-7 69-7 67-7 65-7 61-6 58-6 54-6 50-5 46-6 42-5 38-4 34-5 30-3 25-6 41-3 28 12-24 7-35 7-52 4-31 5-34 5-38 5-43 5-45 7-51 6-52 7-54 7-59 8-61 7-65 9-66 9-69 10-68 10-72 10-71 10-72 11-71 11-71 11-69 11-67 11-65 10-62 11-60 10-57 9-54 9-50 8-46 6-43 6-40 5-37 3-33 3-29 2-26 3-25 1-41 0-34-1-27-3-29-6-24 4 37 7 33 8 45 4 25 6 30 5 31 7 35 7 39 8 41 9 44 10 48 11 48 13 53 14 55 14 58 16 60 16 63 18 66 19 68 20 71 20 70 20 73 21 71 21 71 21 69 20 68 19 65 18 63 16 60 16 55 14 53 14 49 13 43 11 40 11 36 9 31 9 26 12 42 10 24-14-31-19-34-24-44-15-27-15-29-15-31-18-34-17-36-18-38-18-39-19-40-20-40-21-39-22-40-21-39-23-39-23-36-25-35-26-33-26-31-26-29-28-26-28-23-29-21-29-18-30-16-30-15-31-13-32-10-33-10-33-8-34-7-35-5-35-5-34-4-34-3-34-2-33-1-33 0-32-1-32 1-31 2-30 2-30 4-28 4-28 5-27 6-27 8-25 6-24 8-23 9-42 18-36 20-30 22-25 25-20 26-15 28-10 30-6 33-3 33 2 36 5 33 9 30 13 27 17 20 23 15 29 8 38 2 45-5 26-5 27-7 30-9 33-11 34-13 37-15 39-16 42-18 45-20 48-21 50-21 53-22 55-21 57-22 59-21 60-20 61-18 61-17 63-17 63-16 63-15 64-14 63-14 64-14 64-13 62-15 63-13 62-14 60-13 59-13 57-12 57-10 53-9 52-8 49-6 46-5 44-2 41 0 37 0 33 1 30 4 27 5 23 6 38 15 24 18 15 28"/>
<path d="M9771 13471l 0-1 10 25 10 25 6 25 8 30 5 26 6 29 6 34 6 34 7 34 5 32 5 28 5 32 6 28-6-25-4-32-2-28-2-29 1-31 2-33 4-30 6-30 6-28 8-26 8-25 11-29 13-24 17-20 19 15 9 31 5 29 6 33 5 33 6 34 7 30 7 29 9 23 13 24 18 17 26 9 27-6 17-17 14-24 13-28 11-31 10-31 7-30 5-30 4-31 1-27-1-25-1 31 0 30-1 25-1 26-1 27-1 31-1 32 0 33 0 27 0 24 15-19 7-28 7-31 6-25 5-24 7-23 6-27 6-23 8-33 8-25 10-25 24 13 8 25 6 24 7 28 6 31 7 32 9 30 11 27 14 21 21 20 23 9 25-1 25-14 19-19 20-26 15-20 14-21 14-24 14-24 13-25 12-25 10-23 10-31 8-27 7-30 0-27-9-23-24 6-18 24-11 23-10 27-8 31-6 36-3 25-2 26 0 35 1 32 5 25 11 24 22 14 26-11 18-19 11-23 11-25 9-30 7-31 3-34 0-33-3-34-6-34-6-34-6-29-4-25 1 29 6 26 11 31 17 28 16 20 21 19 25 19 29 18 34 16 37 13 40 11 40 7 37 6 35 2 32-1 28-3 24-7 31-15 21-19"/>
</svg>
